<?xml version="1.0" encoding="UTF-8"?>
<svg xmlns="http://www.w3.org/2000/svg" xmlns:xlink="http://www.w3.org/1999/xlink" width="200pt" height="200pt" viewBox="0 0 200 200" version="1.1">
<g id="surface1">
<rect x="0" y="0" width="200" height="200" style="fill:rgb(5.882353%,54.509804%,55.294118%);fill-opacity:1;stroke:none;"/>
<path style="fill:none;stroke-width:0.005;stroke-linecap:butt;stroke-linejoin:miter;stroke:rgb(64.705882%,0.392157%,1.568627%);stroke-opacity:1;stroke-miterlimit:10;" d="M 0 0.05 L 0.0625 0.05 L 0.09375 0.104121 L 0.0625 0.158262 M 0.0625 0.158262 L 0.09375 0.212383 L 0.15625 0.212383 L 0.1875 0.158262 M 0.1875 0.158262 L 0.15625 0.104121 L 0.1875 0.05 L 0.25 0.05 M 0.25 0.05 L 0.28125 0.104121 L 0.34375 0.104121 L 0.375 0.05 M 0.375 0.05 L 0.4375 0.05 L 0.46875 0.104121 L 0.4375 0.158262 M 0.4375 0.158262 L 0.375 0.158262 L 0.34375 0.212383 L 0.375 0.266504 M 0.375 0.266504 L 0.34375 0.320625 L 0.28125 0.320625 L 0.25 0.266504 M 0.25 0.266504 L 0.1875 0.266504 L 0.15625 0.320625 L 0.1875 0.374766 M 0.1875 0.374766 L 0.25 0.374766 L 0.28125 0.428887 L 0.25 0.483008 M 0.25 0.483008 L 0.28125 0.537148 L 0.34375 0.537148 L 0.375 0.483008 M 0.375 0.483008 L 0.4375 0.483008 L 0.46875 0.537148 L 0.4375 0.59127 M 0.4375 0.59127 L 0.375 0.59127 L 0.34375 0.645391 L 0.375 0.699512 M 0.375 0.699512 L 0.4375 0.699512 L 0.46875 0.753652 L 0.4375 0.807773 M 0.4375 0.807773 L 0.46875 0.861895 L 0.53125 0.861895 L 0.5625 0.807773 M 0.5625 0.807773 L 0.53125 0.753652 L 0.5625 0.699512 L 0.625 0.699512 M 0.625 0.699512 L 0.65625 0.645391 L 0.625 0.59127 L 0.5625 0.59127 M 0.5625 0.59127 L 0.53125 0.537148 L 0.5625 0.483008 L 0.625 0.483008 M 0.625 0.483008 L 0.65625 0.537148 L 0.71875 0.537148 L 0.75 0.483008 M 0.75 0.483008 L 0.71875 0.428887 L 0.75 0.374766 L 0.8125 0.374766 M 0.8125 0.374766 L 0.84375 0.320625 L 0.8125 0.266504 L 0.75 0.266504 M 0.75 0.266504 L 0.71875 0.320625 L 0.65625 0.320625 L 0.625 0.266504 M 0.625 0.266504 L 0.65625 0.212383 L 0.625 0.158262 L 0.5625 0.158262 M 0.5625 0.158262 L 0.53125 0.104121 L 0.5625 0.05 L 0.625 0.05 M 0.625 0.05 L 0.65625 0.104121 L 0.71875 0.104121 L 0.75 0.05 M 0.75 0.05 L 0.8125 0.05 L 0.84375 0.104121 L 0.8125 0.158262 M 0.8125 0.158262 L 0.84375 0.212383 L 0.90625 0.212383 L 0.9375 0.158262 M 0.9375 0.158262 L 0.90625 0.104121 L 0.9375 0.05 L 1 0.05 " transform="matrix(200,0,0,-200,0,200)"/>
<path style="fill:none;stroke-width:0.005;stroke-linecap:butt;stroke-linejoin:miter;stroke:rgb(100%,70.588235%,0%);stroke-opacity:1;stroke-miterlimit:10;" d="M 0 0.05 L 0.046875 0.0590234 L 0.078125 0.113145 L 0.0625 0.158262 M 0.0625 0.158262 L 0.09375 0.194336 L 0.15625 0.194336 L 0.1875 0.158262 M 0.1875 0.158262 L 0.171875 0.113145 L 0.203125 0.0590234 L 0.25 0.05 M 0.25 0.05 L 0.28125 0.0860937 L 0.34375 0.0860937 L 0.375 0.05 M 0.375 0.05 L 0.421875 0.0590234 L 0.453125 0.113145 L 0.4375 0.158262 M 0.4375 0.158262 L 0.390625 0.167266 L 0.359375 0.221406 L 0.375 0.266504 M 0.375 0.266504 L 0.34375 0.302598 L 0.28125 0.302598 L 0.25 0.266504 M 0.25 0.266504 L 0.203125 0.275527 L 0.171875 0.329648 L 0.1875 0.374766 M 0.1875 0.374766 L 0.234375 0.383789 L 0.265625 0.43791 L 0.25 0.483008 M 0.25 0.483008 L 0.28125 0.519102 L 0.34375 0.519102 L 0.375 0.483008 M 0.375 0.483008 L 0.421875 0.492031 L 0.453125 0.546152 L 0.4375 0.59127 M 0.4375 0.59127 L 0.390625 0.600293 L 0.359375 0.654414 L 0.375 0.699512 M 0.375 0.699512 L 0.421875 0.708535 L 0.453125 0.762676 L 0.4375 0.807773 M 0.4375 0.807773 L 0.46875 0.843848 L 0.53125 0.843848 L 0.5625 0.807773 M 0.5625 0.807773 L 0.546875 0.762676 L 0.578125 0.708535 L 0.625 0.699512 M 0.625 0.699512 L 0.640625 0.654414 L 0.609375 0.600293 L 0.5625 0.59127 M 0.5625 0.59127 L 0.546875 0.546152 L 0.578125 0.492031 L 0.625 0.483008 M 0.625 0.483008 L 0.65625 0.519102 L 0.71875 0.519102 L 0.75 0.483008 M 0.75 0.483008 L 0.734375 0.43791 L 0.765625 0.383789 L 0.8125 0.374766 M 0.8125 0.374766 L 0.828125 0.329648 L 0.796875 0.275527 L 0.75 0.266504 M 0.75 0.266504 L 0.71875 0.302598 L 0.65625 0.302598 L 0.625 0.266504 M 0.625 0.266504 L 0.640625 0.221406 L 0.609375 0.167266 L 0.5625 0.158262 M 0.5625 0.158262 L 0.546875 0.113145 L 0.578125 0.0590234 L 0.625 0.05 M 0.625 0.05 L 0.65625 0.0860937 L 0.71875 0.0860937 L 0.75 0.05 M 0.75 0.05 L 0.796875 0.0590234 L 0.828125 0.113145 L 0.8125 0.158262 M 0.8125 0.158262 L 0.84375 0.194336 L 0.90625 0.194336 L 0.9375 0.158262 M 0.9375 0.158262 L 0.921875 0.113145 L 0.953125 0.0590234 L 1 0.05 " transform="matrix(200,0,0,-200,0,200)"/>
<path style="fill:none;stroke-width:0.005;stroke-linecap:butt;stroke-linejoin:miter;stroke:rgb(10.980392%,36.470588%,60%);stroke-opacity:1;stroke-miterlimit:10;" d="M 0 0.05 L 0.03125 0.0680469 L 0.0625 0.122168 L 0.0625 0.158262 M 0.0625 0.158262 L 0.09375 0.176289 L 0.15625 0.176289 L 0.1875 0.158262 M 0.1875 0.158262 L 0.1875 0.122168 L 0.21875 0.0680469 L 0.25 0.05 M 0.25 0.05 L 0.28125 0.0680469 L 0.34375 0.0680469 L 0.375 0.05 M 0.375 0.05 L 0.40625 0.0680469 L 0.4375 0.122168 L 0.4375 0.158262 M 0.4375 0.158262 L 0.40625 0.176289 L 0.375 0.23043 L 0.375 0.266504 M 0.375 0.266504 L 0.34375 0.284551 L 0.28125 0.284551 L 0.25 0.266504 M 0.25 0.266504 L 0.21875 0.284551 L 0.1875 0.338672 L 0.1875 0.374766 M 0.1875 0.374766 L 0.21875 0.392793 L 0.25 0.446934 L 0.25 0.483008 M 0.25 0.483008 L 0.28125 0.501055 L 0.34375 0.501055 L 0.375 0.483008 M 0.375 0.483008 L 0.40625 0.501055 L 0.4375 0.555176 L 0.4375 0.59127 M 0.4375 0.59127 L 0.40625 0.609316 L 0.375 0.663438 L 0.375 0.699512 M 0.375 0.699512 L 0.40625 0.717559 L 0.4375 0.77168 L 0.4375 0.807773 M 0.4375 0.807773 L 0.46875 0.82582 L 0.53125 0.82582 L 0.5625 0.807773 M 0.5625 0.807773 L 0.5625 0.77168 L 0.59375 0.717559 L 0.625 0.699512 M 0.625 0.699512 L 0.625 0.663438 L 0.59375 0.609316 L 0.5625 0.59127 M 0.5625 0.59127 L 0.5625 0.555176 L 0.59375 0.501055 L 0.625 0.483008 M 0.625 0.483008 L 0.65625 0.501055 L 0.71875 0.501055 L 0.75 0.483008 M 0.75 0.483008 L 0.75 0.446934 L 0.78125 0.392793 L 0.8125 0.374766 M 0.8125 0.374766 L 0.8125 0.338672 L 0.78125 0.284551 L 0.75 0.266504 M 0.75 0.266504 L 0.71875 0.284551 L 0.65625 0.284551 L 0.625 0.266504 M 0.625 0.266504 L 0.625 0.23043 L 0.59375 0.176289 L 0.5625 0.158262 M 0.5625 0.158262 L 0.5625 0.122168 L 0.59375 0.0680469 L 0.625 0.05 M 0.625 0.05 L 0.65625 0.0680469 L 0.71875 0.0680469 L 0.75 0.05 M 0.75 0.05 L 0.78125 0.0680469 L 0.8125 0.122168 L 0.8125 0.158262 M 0.8125 0.158262 L 0.84375 0.176289 L 0.90625 0.176289 L 0.9375 0.158262 M 0.9375 0.158262 L 0.9375 0.122168 L 0.96875 0.0680469 L 1 0.05 " transform="matrix(200,0,0,-200,0,200)"/>
<path style="fill:none;stroke-width:0.005;stroke-linecap:butt;stroke-linejoin:miter;stroke:rgb(97.647059%,62.745098%,24.705882%);stroke-opacity:1;stroke-miterlimit:10;" d="M 0 0.05 L 0.015625 0.0770703 L 0.046875 0.131191 L 0.0625 0.158262 M 0.0625 0.158262 L 0.1875 0.158262 M 0.1875 0.158262 L 0.203125 0.131191 L 0.234375 0.0770703 L 0.25 0.05 M 0.25 0.05 L 0.375 0.05 M 0.375 0.05 L 0.390625 0.0770703 L 0.421875 0.131191 L 0.4375 0.158262 M 0.4375 0.158262 L 0.421875 0.185312 L 0.390625 0.239434 L 0.375 0.266504 M 0.375 0.266504 L 0.25 0.266504 M 0.25 0.266504 L 0.234375 0.293574 L 0.203125 0.347695 L 0.1875 0.374766 M 0.1875 0.374766 L 0.203125 0.401816 L 0.234375 0.455957 L 0.25 0.483008 M 0.25 0.483008 L 0.375 0.483008 M 0.375 0.483008 L 0.390625 0.510078 L 0.421875 0.564199 L 0.4375 0.59127 M 0.4375 0.59127 L 0.421875 0.61832 L 0.390625 0.672461 L 0.375 0.699512 M 0.375 0.699512 L 0.390625 0.726582 L 0.421875 0.780703 L 0.4375 0.807773 M 0.4375 0.807773 L 0.5625 0.807773 M 0.5625 0.807773 L 0.578125 0.780703 L 0.609375 0.726582 L 0.625 0.699512 M 0.625 0.699512 L 0.609375 0.672461 L 0.578125 0.61832 L 0.5625 0.59127 M 0.5625 0.59127 L 0.578125 0.564199 L 0.609375 0.510078 L 0.625 0.483008 M 0.625 0.483008 L 0.75 0.483008 M 0.75 0.483008 L 0.765625 0.455957 L 0.796875 0.401816 L 0.8125 0.374766 M 0.8125 0.374766 L 0.796875 0.347695 L 0.765625 0.293574 L 0.75 0.266504 M 0.75 0.266504 L 0.625 0.266504 M 0.625 0.266504 L 0.609375 0.239434 L 0.578125 0.185312 L 0.5625 0.158262 M 0.5625 0.158262 L 0.578125 0.131191 L 0.609375 0.0770703 L 0.625 0.05 M 0.625 0.05 L 0.75 0.05 M 0.75 0.05 L 0.765625 0.0770703 L 0.796875 0.131191 L 0.8125 0.158262 M 0.8125 0.158262 L 0.9375 0.158262 M 0.9375 0.158262 L 0.953125 0.131191 L 0.984375 0.0770703 L 1 0.05 " transform="matrix(200,0,0,-200,0,200)"/>
</g>
</svg>
